<?xml version="1.0" standalone="no"?><!DOCTYPE svg PUBLIC "-//W3C//DTD SVG 1.1//EN" "http://www.w3.org/Graphics/SVG/1.1/DTD/svg11.dtd"><svg t="1767314155626" class="icon" viewBox="0 0 1024 1024" version="1.1" xmlns="http://www.w3.org/2000/svg" p-id="7568" xmlns:xlink="http://www.w3.org/1999/xlink" width="200" height="200"><path d="M800.137846 548.627692v227.131077h-251.431384v-73.412923h171.165538v-83.810461h-171.165538V391.561846h171.165538V314.604308h-171.165538V241.152h251.431384v226.973538h-171.126154v76.957539h171.126154v3.544615zM512 0c282.781538 0 512 229.218462 512 512s-229.218462 512-512 512S0 794.781538 0 512 229.218462 0 512 0z m0 101.533538C285.302154 101.533538 101.612308 285.302154 101.612308 512S285.302154 922.427077 512 922.427077c226.697846 0 410.427077-183.729231 410.427077-410.427077 0-226.697846-183.729231-410.466462-410.387692-410.466462z m-36.942769 139.618462v73.452308H303.931077v76.957538h171.126154v226.973539H303.931077v83.810461h171.126154v73.412923H223.704615V545.083077h171.126154v-76.957539H223.704615V241.152h251.392z" fill="#D62629" p-id="7569"></path></svg>