<?xml version="1.0" standalone="no"?><!DOCTYPE svg PUBLIC "-//W3C//DTD SVG 1.1//EN" "http://www.w3.org/Graphics/SVG/1.1/DTD/svg11.dtd"><svg t="1767314354813" class="icon" viewBox="0 0 1024 1024" version="1.1" xmlns="http://www.w3.org/2000/svg" p-id="18522" xmlns:xlink="http://www.w3.org/1999/xlink" width="200" height="200"><path d="M512 1024c-56.096-89.344-97.184-137.728-123.296-145.184C201.216 825.248 64 652.672 64 448 64 200.576 264.576 0 512 0s448 200.576 448 448c0 203.168-135.232 374.72-320.608 429.632-26.88 7.968-69.376 56.768-127.392 146.368z m0-192c212.064 0 384-171.936 384-384S724.064 64 512 64 128 235.936 128 448s171.936 384 384 384zM366.72 241.28a108.8 108.8 0 0 1 61.632 97.92v417.504A313.312 313.312 0 0 1 366.72 732.8V241.248z m292.8 0V732.8a312.736 312.736 0 0 1-61.664 23.904V339.2a108.8 108.8 0 0 1 61.664-97.92z m0.8-69.056c0 6.4-4.16 11.712-9.92 13.504A140.864 140.864 0 0 0 551.68 320v445.696c-12.64 1.504-25.504 2.336-38.56 2.336-13.056 0-25.888-0.832-38.496-2.336V319.968a140.864 140.864 0 0 0-98.784-134.208v-0.032a14.08 14.08 0 0 1-1.952-26.112A320.8 320.8 0 0 1 513.12 128c49.856 0 97.056 11.36 139.2 31.552l-0.064 0.032c4.768 2.24 8.064 7.072 8.064 12.64zM293.44 427.232a48.768 48.768 0 0 1-31.264-36.416l0.576 2.496a5.184 5.184 0 0 0-4.992-3.904 4.864 4.864 0 0 0-3.552 1.472 87.968 87.968 0 0 0-0.096 114.176 5.248 5.248 0 0 0 3.648 1.472 4.992 4.992 0 0 0 4.992-3.776l0.192-0.48c3.936-14.944 14.848-27.84 30.496-33.504a20.64 20.64 0 0 1 24.448 8.384v224.864A319.104 319.104 0 0 1 192 448a319.04 319.04 0 0 1 125.92-254.08v224.928a20.704 20.704 0 0 1-24.448 8.384z m511.136 41.536a20.672 20.672 0 0 1 27.392 16.416 319.2 319.2 0 0 1-123.648 216.832V193.952A319.2 319.2 0 0 1 832 410.816a20.704 20.704 0 0 1-27.392 16.384 48.8 48.8 0 0 1-30.656-33.856l-0.096-0.096a5.056 5.056 0 0 0-4.896-3.84 5.248 5.248 0 0 0-4.32 2.336 87.808 87.808 0 0 0 0 112.48 5.12 5.12 0 0 0 4.32 2.304c2.464 0 4.48-1.632 4.992-3.84l0.064-0.192c3.84-15.104 14.784-27.936 30.592-33.728z" fill="#D7010F" p-id="18523"></path></svg>