<?xml version="1.0" standalone="no"?><!DOCTYPE svg PUBLIC "-//W3C//DTD SVG 1.1//EN" "http://www.w3.org/Graphics/SVG/1.1/DTD/svg11.dtd"><svg t="1767314306660" class="icon" viewBox="0 0 1024 1024" version="1.1" xmlns="http://www.w3.org/2000/svg" p-id="15431" xmlns:xlink="http://www.w3.org/1999/xlink" width="200" height="200"><path d="M512 1024c-56.096-89.344-97.184-137.728-123.296-145.184C201.216 825.248 64 652.672 64 448 64 200.576 264.576 0 512 0s448 200.576 448 448c0 203.168-135.232 374.72-320.608 429.632-26.88 7.968-69.376 56.768-127.392 146.368z m0-192c212.064 0 384-171.936 384-384S724.064 64 512 64 128 235.936 128 448s171.936 384 384 384z m0.096-160h-0.16c-1.952-70.944-52.672-128.128-114.592-128.16a119.744 119.744 0 0 0-0.064 4.256c0 56.48 30.88 104.928 74.144 123.904H224l144-288L512 96l144 288 144 288h-247.424c43.296-18.976 74.176-67.424 74.176-123.904 0-1.408 0-2.848-0.064-4.256l0.064-4.256c0-72.96-51.52-132.48-114.688-132.48a118.176 118.176 0 0 0-0.064 3.584c0-1.216 0-2.432-0.064-3.584-63.168 0-114.656 59.52-114.656 132.48 0 1.408 0 2.848 0.064 4.256 63.136-0.032 114.624-59.52 114.656-132.384 0.064 72.928 51.552 132.352 114.688 132.384-61.92 0-112.64 57.216-114.592 128.16z" fill="#B18D4F" p-id="15432"></path></svg>