<?xml version="1.0" standalone="no"?><!DOCTYPE svg PUBLIC "-//W3C//DTD SVG 1.1//EN" "http://www.w3.org/Graphics/SVG/1.1/DTD/svg11.dtd"><svg t="1767314287007" class="icon" viewBox="0 0 1024 1024" version="1.1" xmlns="http://www.w3.org/2000/svg" p-id="14401" xmlns:xlink="http://www.w3.org/1999/xlink" width="200" height="200"><path d="M512 1024c-56.096-89.344-97.184-137.728-123.296-145.184C201.216 825.248 64 652.672 64 448 64 200.576 264.576 0 512 0s448 200.576 448 448c0 203.168-135.232 374.72-320.608 429.632-26.88 7.968-69.376 56.768-127.392 146.368z m0-192c212.064 0 384-171.936 384-384S724.064 64 512 64 128 235.936 128 448s171.936 384 384 384z m113.888-640C757.12 192 864 299.68 864 432S757.152 672 625.888 672A235.456 235.456 0 0 1 512 642.72a235.456 235.456 0 0 1-113.888 29.28C266.88 672 160 564.32 160 432S266.848 192 398.112 192c41.184 0 80.096 10.656 113.888 29.28A235.456 235.456 0 0 1 625.888 192z m0 443.296c111.2 0 201.664-91.2 201.664-203.488 0-112.096-90.464-203.264-201.664-203.264a198.4 198.4 0 0 0-78.88 16.128 240.448 240.448 0 0 1 75.008 105.568h79.712v160.704h-159.456v-160.704h40.64a203.36 203.36 0 0 0-105.92-105.376 200.896 200.896 0 0 0-78.88-16.16c-111.2 0-201.664 91.2-201.664 203.296 0 112.096 90.464 203.296 201.664 203.296a198.4 198.4 0 0 0 78.88-16.16 241.568 241.568 0 0 1-75.872-108.032H317.152V350.4h159.296v160.704h-36.416A204.704 204.704 0 0 0 512 599.808a200.896 200.896 0 0 0 113.888 35.488z m-272.48-248.352v87.456h86.784v-87.456H353.408z m311.904 87.456v-87.456h-86.784v87.456h86.784z" fill="#004EA2" p-id="14402"></path></svg>