<?xml version="1.0" standalone="no"?><!DOCTYPE svg PUBLIC "-//W3C//DTD SVG 1.1//EN" "http://www.w3.org/Graphics/SVG/1.1/DTD/svg11.dtd"><svg t="1767314398707" class="icon" viewBox="0 0 1024 1024" version="1.1" xmlns="http://www.w3.org/2000/svg" p-id="21652" xmlns:xlink="http://www.w3.org/1999/xlink" width="200" height="200"><path d="M520.270769 98.658462h-8.507077C328.388923 102.990769 72.467692 159.271385 25.6 328.113231c0 8.664615-4.292923 12.996923-4.292923 17.329231v21.661538c8.546462 99.524923 149.267692 216.418462 383.842461 216.418462l-127.960615 77.942153 221.774769 116.893539 12.8-8.664616 234.535385-121.225846-234.535385-95.232-17.053538-8.664615s-341.188923 12.996923-311.335385-233.787077c34.107077-99.564308 187.667692-160.177231 336.896-160.177231 157.814154-8.664615 324.135385 56.32 345.442462 207.793231h157.814154c0-199.128615-336.935385-264.073846-503.256616-259.741538z m-98.067692 562.806153l89.560615-51.987692 102.360616 51.987692-102.4 51.948308-89.521231-51.987692z" fill="#00A75A" p-id="21653"></path><path d="M618.338462 436.342154L742.084923 358.4l-221.735385-121.186462L272.935385 367.064615l234.574769 103.896616 21.307077 8.664615s341.188923-12.996923 311.335384 233.787077c-38.4 99.564308-183.414154 160.177231-332.642461 160.177231-162.067692 4.332308-328.388923-60.612923-349.735385-207.793231H0C0 864.886154 336.896 925.538462 503.217231 925.538462h4.292923c183.374769-8.664615 443.470769-56.280615 490.417231-229.45477 0-4.332308 4.253538-8.664615 4.253538-17.32923v-21.661539c-8.507077-108.189538-153.521231-220.750769-383.803077-220.750769zM601.363692 358.4l-89.560615 51.987692-98.067692-51.987692 98.067692-51.948308 89.560615 51.987693z" fill="#0070BF" p-id="21654"></path></svg>