<?xml version="1.0" standalone="no"?><!DOCTYPE svg PUBLIC "-//W3C//DTD SVG 1.1//EN" "http://www.w3.org/Graphics/SVG/1.1/DTD/svg11.dtd"><svg t="1767314219462" class="icon" viewBox="0 0 1024 1024" version="1.1" xmlns="http://www.w3.org/2000/svg" p-id="10518" xmlns:xlink="http://www.w3.org/1999/xlink" width="200" height="200"><path d="M735.11335 717.057935c-43.848866 0-90.277078 5.15869-134.125944 5.15869-28.372796 126.387909-273.410579 90.277078-245.037784-69.642318 12.896725-92.856423 144.443325-134.125945 221.823678-64.483627 15.476071 20.634761 25.793451 36.110831 33.531486 77.380353 41.269521 0 90.277078-5.15869 131.546599-5.15869 0-203.768262-229.561713-306.942065-399.798488-208.926953-167.657431 92.856423-147.02267 384.322418 28.372796 453.964736v5.15869c-92.856423 0-201.188917-74.801008-221.823678-162.49874v-469.440806c74.801008-54.166247 159.919395-113.491184 232.141058-162.498741 5.15869 0 5.15869 5.15869 7.738035 5.15869-5.15869 69.642317 0 188.292191 5.15869 273.410579 49.007557-43.848866 77.380353-92.856423 159.919396-110.911838 54.166247-12.896725 103.173804-5.15869 134.125945 7.738035 237.299748 82.539043 252.775819 389.481108 49.007556 495.234257-5.15869 0-15.476071 7.738035-20.63476 12.896725 0 0 5.15869-7.738035 7.738035-15.47607-2.579345-20.634761 2.579345-46.428212 10.31738-67.062972z" fill="#1D2088" p-id="10519"></path></svg>