<?xml version="1.0" standalone="no"?><!DOCTYPE svg PUBLIC "-//W3C//DTD SVG 1.1//EN" "http://www.w3.org/Graphics/SVG/1.1/DTD/svg11.dtd"><svg t="1767314448126" class="icon" viewBox="0 0 1024 1024" version="1.1" xmlns="http://www.w3.org/2000/svg" p-id="24809" xmlns:xlink="http://www.w3.org/1999/xlink" width="200" height="200"><path d="M1023.921231 508.573538c0-135.010462-177.860923-244.460308-397.351385-244.460307-175.537231 0-324.647385 70.183385-376.910769 167.424v-0.078769c-4.962462 8.861538-7.561846 18.904615-7.640615 29.10523 0 24.300308 14.848 45.843692 38.084923 59.98277l201.452307 119.532307c10.397538 5.868308 22.843077 9.294769 36.155077 9.294769a74.830769 74.830769 0 0 0 36.352-9.216l191.054769-113.58523c12.918154-7.640615 21.110154-19.652923 21.110154-33.004308 0-12.957538-7.719385-24.576-20.007384-32.295385l-70.971077-42.299077-157.538462 93.538462-119.059692-70.813538c46.040615-42.653538 131.702154-71.325538 230.006154-71.325539 146.825846 0 265.846154 64.157538 265.846154 143.320615-3.190154 122.407385-177.860923 217.245538-390.025847 211.613539-212.283077-5.789538-381.873231-109.883077-378.683076-232.369231H125.636923c1.575385-161.555692 207.556923-290.540308 460.012308-288.059077 22.606769 0.236308 44.544 1.457231 66.126769 3.702154-51.869538-19.692308-116.499692-31.350154-186.958769-31.350154-56.162462 0-108.859077 7.483077-154.112 20.48C127.842462 249.304615 0 369.073231 0 508.534154 0 695.335385 229.139692 846.769231 512 846.769231c282.781538 0 512-151.433846 512-338.195693h-0.118154 0.039385z" fill="#004287" p-id="24810"></path></svg>