<?xml version="1.0" standalone="no"?><!DOCTYPE svg PUBLIC "-//W3C//DTD SVG 1.1//EN" "http://www.w3.org/Graphics/SVG/1.1/DTD/svg11.dtd"><svg t="1767314488958" class="icon" viewBox="0 0 1024 1024" version="1.1" xmlns="http://www.w3.org/2000/svg" p-id="26882" xmlns:xlink="http://www.w3.org/1999/xlink" width="200" height="200"><path d="M1003.716923 651.539692l4.647385-17.171692 4.056615-17.211077 3.465846-17.486769 2.756923-17.171692 1.299693-8.78277 0.905846-9.058461 0.984615-8.743385 0.905846-8.743384 0.275693-9.058462 0.708923-9.058462v-9.058461l0.275692-9.058462-0.275692-13.154461-0.315077-12.8-0.984616-12.8-0.905846-12.839385-1.260307-12.8-1.575385-12.484923-1.890462-12.524308-2.48123-12.169846-2.481231-12.20923-2.875077-12.169847-2.756923-11.854769-3.465846-11.894154-3.741539-11.579077-4.056615-11.539692-4.332308-11.579077-4.411077-11.224615-5.001846-11.264-5.001846-11.264-5.632-10.909539-5.632-10.948923-5.907692-10.633846-6.262154-10.633846-6.852923-10.633846-6.892308-10.279385-7.128615-10.318769-7.522462-10.003692-7.837538-9.964308-7.798154-9.728-8.428308-9.964308-8.704-9.373538-8.782769-9.728-9.412923-9.334154-9.334154-9.058462-9.688615-9.097846-9.688616-8.428307-9.688615-8.428308-10.003693-8.113231-10.003692-7.798154-10.279384-7.522461-10.31877-7.207385-10.279384-6.852923-10.633846-6.577231-10.633847-6.262154-10.909538-6.222769-10.948923-5.592615-10.909539-5.356308-11.303384-5.316923-11.264-4.686769-11.500308-4.686769-11.579077-4.332308-11.539692-3.780923L661.267692 21.267692l-11.894154-3.465846-11.854769-3.111384-12.209231-2.835693L613.218462 9.452308 601.009231 7.168l-12.445539-1.811692-12.484923-1.575385-12.563692-1.575385-12.760615-0.94523-12.8-0.630154L525.115077 0h-26.230154l-13.154461 0.630154-13.075693 0.630154-12.839384 0.94523-12.484923 1.575385-12.484924 1.575385-12.484923 1.811692-12.524307 2.244923-12.209231 2.441846-12.169846 2.835693-11.815385 3.150769-11.933538 3.426461-11.500308 3.741539L338.707692 28.750769l-11.579077 4.371693-11.303384 4.686769-11.185231 4.726154-11.264 5.277538-10.909538 5.356308-10.948924 5.592615-10.633846 6.222769-10.633846 6.262154-10.633846 6.577231-10.279385 6.852923-10.318769 7.207385-9.964308 7.483077-10.003692 7.837538-10.003692 8.113231-10.003692 8.428308-9.373539 8.428307-9.688615 9.058462-9.334154 9.058461-9.412923 9.373539-8.664616 9.728-8.822153 9.373538-8.428308 9.964308-8.113231 9.728-7.483077 9.964308-7.522461 10.003692-7.168 10.318769-7.207385 10.279385-6.537846 10.633846-6.222769 10.633846-5.947077 10.633846-5.907693 10.948923-5.356307 10.909539-5.001846 11.264-5.001847 11.264-4.686769 11.224615-4.056615 11.579077-4.056616 11.539692-3.741538 11.579077-3.465846 11.894154-3.072 11.854769-2.835693 12.209231-2.520615 12.209231-2.166154 12.130461-1.851077 12.524308-1.575384 12.484923-1.220923 12.8-1.299693 12.839385-0.590769 12.8-0.393846 12.8-0.275692 13.154461 0.275692 13.115077 0.393846 13.115077 0.590769 12.839385 1.299693 12.760615 1.181538 12.839385 1.575385 12.484923 1.890461 12.484923 2.166154 12.209231 2.520615 12.209231 2.835693 12.20923 3.072 12.169846 3.465846 11.85477 3.741538 11.539692 4.056616 11.854769 4.056615 11.303385 4.686769 11.539692 5.001847 11.264 5.001846 11.264 5.316923 10.909539 5.907692 10.948923 5.986462 10.909538 6.222769 10.633846 6.537846 10.633846 7.207385 10.594462 7.168 10.358154 7.483077 9.964308 7.522461 10.318769 8.113231 9.688615 8.428308 10.003692 8.782769 9.649231 8.704 9.728 9.412923 9.412923 9.334154 9.058462 9.688615 9.058461 9.373539 8.664616 10.003692 8.192 10.003692 8.113231 10.003692 7.798153 9.964308 7.522462 10.318769 7.168 10.31877 6.892308 10.594461 6.57723 10.633846 6.22277 10.633846 6.222769 10.948924 5.632 10.909538 5.671384 11.264 4.962462 11.185231 5.041231 11.303384 4.332307 11.579077 4.371693 11.539693 4.096 11.539692 3.426461 11.854769 3.426462 11.854769 3.150769 12.209231 2.756923 12.169846 2.56 12.524308 2.166154 12.484923 1.851077 12.484923 1.890461 12.484923 1.260308 12.839385 0.945231 13.075692 0.590769 13.154462 0.630154H512l18.392615-0.275692 18.116923-0.630154 17.841231-1.575385 17.801846-1.890461 17.447385-2.520616 16.896-3.072 17.132308-3.780923 16.620307-4.056615 16.226462-5.001846 16.226461-5.316923 15.95077-5.907693 15.635692-6.262154 15.241846-7.168 15.36-7.522461 14.966154-8.113231 14.690462-8.467692 10.003692-6.222769 9.688615-6.262154 9.373539-6.222769 8.743384-6.577231 8.704-6.262154 8.113231-6.577231 7.876923-6.537846 7.483077-6.577231 6.813539-6.852923 6.931692-6.577231 6.222769-6.852923 5.947077-6.892307 5.632-7.168 5.277538-6.892308 4.726154-7.207385 4.647385-7.168 4.056615-7.207384 3.780923-7.168 3.426462-7.168 3.111385-7.522462 2.835692-7.483077 2.166154-7.522461 2.205538-7.483077 1.575385-7.798154 1.181538-7.522462 0.984616-7.798153 0.315077-7.837539 0.315076-7.798154-0.315076-8.113231-0.315077-7.837538-0.945231-8.113231-1.220923-8.113231-1.575385-6.57723-1.575384-6.852923-1.890462-6.301539-1.851077-6.537846-2.520615-6.262154-2.481231-5.907692-2.835692-5.907692-3.072-5.986462-3.465847-5.592615-3.465846-5.632-4.056615-5.632-4.056615-5.356308-4.332308-4.962462-4.371692-5.001846-5.041231-5.001846-4.962462-5.001846-5.356307-4.686769-5.632-4.371693-5.907693-4.332307-5.907692-4.411077-6.301539-4.056616-6.537846-4.056615-6.813538-3.780923-7.246769-4.017231-7.168-3.465846-7.483077-3.426462-7.798154-3.465846-8.113231-3.111384-8.428308-3.15077-8.467692-3.072-8.743385-2.835692-9.058461-2.835692-23.394462-8.073846 7.443693-4.371693 7.207384-4.726153 6.852923-4.726154 6.301539-4.923077 5.907692-5.356308 5.592616-5.277538 5.04123-5.632 4.647385-5.907693 4.332308-5.986461 3.780923-6.222769 3.780923-6.577231 2.835692-6.577231 2.756923-6.852923 2.205539-6.892308 1.575384-7.168 1.575385-7.483077 0.590769-8.743384 0.315077-8.152616-0.315077-8.428307-0.590769-8.467693-1.575385-8.073846-2.166154-8.152615-2.48123-7.798154-3.15077-8.152615-3.780923-7.798154-4.332307-7.798154-5.041231-7.837539-5.592616-7.483077-6.301538-7.483076-6.852923-7.522462-7.483077-7.207385-7.837538-7.168-8.704-7.483077-8.743385-7.207384-9.058462-6.537846-9.412923-6.301539-9.609846-5.907692-10.003692-5.632-10.358154-5.001846-10.633846-4.962462-10.870154-4.411077-11.264-4.332307-11.579077-3.780923-11.894154-3.426462-12.169846-3.150769-12.484923-3.111385-12.839385-2.520615-13.075692-2.166154-15.044923-2.166154-14.966154-1.890461-15.596308-1.575385-15.635692-1.260308-15.950769-1.220923-16.226462-0.945231-16.226461-0.630153-16.856616-0.315077-16.935384-0.315077-17.171692 0.315077h-17.447385l-17.801846 0.630153-18.116923 0.905847-18.432 0.984615-18.471385 0.905846-18.707692 1.575385v161.555692l14.966154-1.890461 15.005538-1.851077 14.966154-1.260308 15.36-1.260308 15.005538-0.945231 15.281231-0.590769 15.320616-0.354461h30.877538l15.36 0.630154 15.596308 0.669538 15.635692 1.220923 15.556923 1.260308 15.635692 1.575384 15.95077 1.890462 15.911384 1.851077 12.839385 2.205538 12.209231 2.481231 11.18523 2.796308 10.633847 2.835692 9.728 3.426462 9.058461 3.426461 8.388923 3.780923 7.483077 4.056616 3.465846 1.851077 3.111385 2.205538 3.150769 2.481231 2.756923 2.166154 2.875077 2.520615 2.166154 2.481231 2.481231 2.520615 1.890461 2.481231 1.890462 2.835692 1.851077 2.835693 1.575384 2.796307 1.220923 3.150769 0.984616 2.756924 0.905846 3.150769 0.669538 3.150769 0.59077 3.426462v5.592615l-0.59077 2.835692-0.669538 3.150769-2.481231 6.852924-3.465846 7.798153-2.166154 3.15077-2.481231 3.111384-2.796307 2.796308-3.465846 2.205538-3.426462 2.166154-3.780923 1.890462-4.056615 1.575384-4.332308 1.260308-4.726154 0.905846-5.316923 0.945231-5.316923 0.315077h-11.854769l-6.262154-0.315077-6.537846-0.945231-7.207385-0.905846-18.707692-2.205538-18.432-1.890462-18.432-1.575385-18.156308-1.220923-17.723077-0.94523-17.841231-0.630154-17.801846-0.315077-17.526154-0.315077-17.171692 0.315077-17.171692 0.315077-17.211077 0.630154-16.817231 0.94523-16.541538 1.181539-16.580924 1.575384-16.265846 1.929847-16.226461 2.205538v164.627692l22.764307-2.48123 22.173539-2.481231 21.897846-1.890462 21.858462-1.575384 20.952615-0.945231 20.873846-0.945231 20.322462-0.275692h20.007384l19.692308 0.630154 19.377231 0.590769 18.707692 1.260308 18.510769 1.890461 18.077539 1.851077 17.801846 2.520615 17.171692 2.756924 16.896 3.150769 13.390769 2.520615 12.524308 3.111385 11.894154 3.150769 10.909538 3.426462 10.24 4.056615 9.452308 4.056615 4.332308 2.166154 4.056615 2.205539 4.056616 2.205538 3.780923 2.481231 3.465846 2.520615 3.347692 2.481231 3.150769 2.835692 2.796308 2.481231 2.875077 2.835692 2.441846 2.796308 2.205539 2.796308 2.166153 3.150769 1.890462 3.111385 1.575385 3.150769 1.575384 3.072 0.905846 3.465846 1.260308 3.150769 0.630154 3.387077 0.590769 3.465846 0.669539 3.780923v2.756923l0.315077 3.15077-0.315077 3.150769v2.756923l-0.669539 3.150769-0.590769 2.796308-0.905846 3.150769-0.984616 2.756923-1.181538 3.150769-1.575385 2.835693-1.575384 3.150769-1.890462 3.150769-4.096 6.183385-4.923077 6.301538-3.150769 3.702154-3.780923 3.426462-3.741539 3.465846-4.056615 3.150769-4.056615 3.111385-4.371693 3.072-4.332307 2.835692-4.726154 2.835692-4.686769 2.756923-4.962462 2.56-5.356308 2.481231-5.316923 2.481231-5.632 2.205538-5.907692 2.166154-5.907692 1.890462-6.301539 1.851077-6.262154 1.929846-6.498461 1.575384-6.577231 1.496616-7.207385 1.260308-14.336 2.520615-15.044923 2.166154-15.950769 1.575384-16.817231 1.260308-17.526153 0.630154h-28.081231l-9.688616-0.315077-9.688615-0.630154-9.649231-0.630154-9.412923-0.94523-9.373538-1.220924-9.058462-1.260307-9.373538-1.575385-9.019077-1.890461-9.058462-2.166154-8.743384-2.166154-8.78277-2.520615-8.704-2.481231-8.743384-3.150769-8.467693-3.15077-8.428307-3.111384-8.428308-3.741539-8.428308-3.741538-8.11323-3.780923-8.152616-4.332308-7.758769-4.411077-7.837538-4.647385-7.798154-4.726153-7.837539-4.962462-7.483077-5.316923-7.522461-5.632-7.483077-5.632-7.483077-5.907692-7.207385-6.301539-7.168-6.222769-6.892307-6.577231-7.128616-6.852923-6.616615-6.852923-6.537846-7.246769-6.577231-7.168-6.222769-7.168-5.907693-7.207385-5.671384-7.483077-5.632-7.483077-5.316923-7.522461-4.962462-7.837539-5.041231-7.483077-4.647384-8.11323-4.371693-7.798154-4.056615-8.113231-4.056615-8.152615-3.741539-8.113231-3.780923-8.467692-3.465846-8.073847-3.072-8.782769-2.835692-8.428307-2.796308-8.743385-2.481231-8.782769-2.244923-8.704-2.166154-9.058462-1.851077-9.058461-1.575384-9.097847-1.575385-9.373538-0.945231-9.334154-1.181538-9.412923-0.708923-9.373538-0.590769-9.688616-0.315077-9.688615v-19.377231l0.315077-9.688615 0.590769-9.649231 0.669538-9.412923 1.220923-9.373539 0.945231-9.373538 1.575385-9.058462 1.575384-9.373538 1.851077-8.743385 2.166154-9.058461 2.244923-8.743385 2.481231-9.058461 2.756923-8.428308 2.875077-8.782769 3.072-8.428308 3.465846-8.428308 3.780923-8.428307 3.741539-8.113231 4.056615-8.152616 4.056615-8.11323 4.332308-8.152616 4.726154-7.798154 5.001846-7.798153 4.962462-7.483077 5.316923-7.876923 5.632-7.483077 5.632-7.483077 5.947077-7.207385 6.222769-7.168 6.577231-7.168 6.537846-7.168 6.616615-6.892308 7.128616-6.892307 7.207384-6.577231 7.168-6.222769 7.207385-6.262154 7.483077-5.907692 7.483077-5.671385 7.483077-5.592615 7.522461-5.316923 7.837539-5.001847 7.798153-5.001846 7.798154-4.686769 8.152616-4.371692 8.11323-4.371693 8.113231-4.056615 8.113231-3.741538 8.388923-3.465847 8.428308-3.426461 8.507077-3.150769 8.704-3.111385 8.428307-2.520615 9.058462-2.481231 8.743385-2.481231 9.058461-1.890461 9.058462-1.851077 9.058461-1.575385 9.058462-1.575385 9.373538-1.260307 9.728-0.905846 9.334154-0.630154 9.688615-0.630154 9.688616-0.315077 9.688615-0.315077 9.688616 0.315077 9.688615 0.315077 9.688615 0.630154 9.334154 0.630154 9.412923 0.905846 9.373539 1.299692 9.019077 1.536 9.097846 1.575385 9.058461 1.851077 9.058462 1.890461 8.704 2.481231 8.782769 2.481231 8.743385 2.520615 8.428307 3.150769 8.78277 3.111385 8.11323 3.426461 8.428308 3.465847 8.113231 3.741538 8.113231 4.056615 8.11323 4.332308 7.798154 4.411077 8.113231 4.686769 7.522462 5.001846 7.798153 5.001847 7.483077 5.316923 7.483077 5.592615 7.246769 5.671385 7.443693 5.907692 7.207384 6.262154 6.892308 6.222769 7.168 6.577231 6.892308 6.892307 6.537846 6.892308 6.537846 6.813539 6.537846 7.207384 6.301539 7.207385 5.947077 7.168 5.592615 7.483077 5.632 7.522461 5.316923 7.483077 4.962462 7.876923 4.726153 7.75877 4.68677 7.837538 4.647384 8.113231 4.056616 7.798154 4.056615 8.467692 3.741539 8.113231 3.780923 8.428307 3.465846 8.428308 3.072 8.428308 2.835692 8.782769 2.796308 8.704 2.481231 8.782769 2.244923 8.743385 2.166153 9.058461 1.890462 9.058462 1.536 9.058461 1.260308 9.373539 1.260307 9.373538 0.905847 9.373539 0.984615 9.412923 0.590769 9.649231 0.315077 9.688615v9.688615l-1.890461 41.275077 8.11323 5.001847 8.113231 4.647384 8.152615 5.316923 7.798154 5.316923 7.483077 5.632 7.522462 5.632 7.522461 5.592616 7.168 6.301538 7.207385 6.222769 7.128615 6.262154 6.616616 6.537846 6.852923 6.577231 6.537846 7.168 6.222769 6.892308 6.301539 7.522461 6.262153 7.483077z" fill="#E3131B" p-id="26883"></path></svg>