<?xml version="1.0" standalone="no"?><!DOCTYPE svg PUBLIC "-//W3C//DTD SVG 1.1//EN" "http://www.w3.org/Graphics/SVG/1.1/DTD/svg11.dtd"><svg t="1767314386846" class="icon" viewBox="0 0 1024 1024" version="1.1" xmlns="http://www.w3.org/2000/svg" p-id="20602" xmlns:xlink="http://www.w3.org/1999/xlink" width="200" height="200"><path d="M512 1024c-56.096-89.344-97.184-137.728-123.296-145.184C201.216 825.248 64 652.672 64 448 64 200.576 264.576 0 512 0s448 200.576 448 448c0 203.168-135.232 374.72-320.608 429.632-26.88 7.968-69.376 56.768-127.392 146.368z m0-192c212.064 0 384-171.936 384-384S724.064 64 512 64 128 235.936 128 448s171.936 384 384 384z m285.824-250.464l2.176 0.96c-6.944 15.488-12.256 32-21.12 46.272a249.088 249.088 0 0 1-80.736 80.256c-26.24 16.288-55.744 22.4-85.824 25.376-67.072 6.656-129.92-7.264-187.264-43.072-74.72-46.656-121.344-113.856-138.752-200.96-6.08-30.464-4.832-61.536-3.2-92.448l0.224-5.024c-15.552 4.608-30.272 10.176-45.504 13.28-32.032 6.56-58.368-5.824-71.296-32.512-6.624-13.696-8.512-28.128-4.224-43.072 6.112-21.312 18.176-39.04 32.832-56.96 0.96 5.248 1.536 9.12 2.464 12.896 4.192 16.928 17.664 25.44 34.816 23.072 33.728-4.64 60.48-22.432 84.896-44.896 23.776-21.92 46.72-44.832 71.36-65.728 55.232-46.816 119.36-70.368 191.616-70.976 5.536-0.064 9.152 1.184 10.56 6.976 0.48 2.048 1.856 3.872 2.56 5.888 4.832 13.536 13.344 19.712 28.544 18.56 9.984-0.768 20.736 1.472 30.336 4.736 13.152 4.512 17.824 13.952 16 27.936-0.928 7.456 1.632 12.32 8.128 15.776 18.496 9.92 37.632 16.32 58.976 12.64 15.04-2.56 27.2 1.344 35.328 15.456 5.92 10.24 5.184 20.48-3.904 28.16a105.984 105.984 0 0 1-16.736 10.88c-19.424 10.88-23.456 14.56-34.464 32.416-14.208-8.64-27.968-18.24-42.752-25.728-72.672-36.8-160.224-23.168-219.2 33.568-40.384 38.88-62.08 86.72-61.952 142.848 0.192 103.584 73.728 182.72 166.592 196.416 64.704 9.568 120-12.352 169.376-52.736 12.608-10.272 23.584-22.496 35.456-33.696 4.608-4.352 9.6-8.288 15.648-11.392l-10.816 20.128 2.016 1.408c14.272-4.928 20.256-17.984 27.776-29.76 1.92 27.2-17.28 43.68-31.808 62.688 10.144-3.52 12.48-5.696 31.872-29.632z m-120.48-198.176c17.792 0.064 30.24 12.544 30.4 30.496 0.32 30.08 0.32 60.224 0 90.368-0.224 19.392-11.904 30.72-31.296 30.848-23.68 0.16-47.392 0-71.104 0-23.456 0-46.88 0.096-70.336 0-19.776-0.064-31.744-12.096-31.84-32.192-0.128-29.312-0.128-58.624 0-87.936 0.128-18.752 12.64-31.52 31.168-31.584 47.68-0.192 95.36-0.192 143.04 0z" fill="#FF0002" p-id="20603"></path></svg>