<?xml version="1.0" standalone="no"?><!DOCTYPE svg PUBLIC "-//W3C//DTD SVG 1.1//EN" "http://www.w3.org/Graphics/SVG/1.1/DTD/svg11.dtd"><svg t="1767314503762" class="icon" viewBox="0 0 1024 1024" version="1.1" xmlns="http://www.w3.org/2000/svg" p-id="27948" xmlns:xlink="http://www.w3.org/1999/xlink" width="200" height="200"><path d="M725.320862 146.944C691.528862 68.726154 603.858708 19.692308 509.4144 19.692308 376.018708 19.692308 267.789785 123.116308 267.789785 250.604308c0 13.351385-0.078769 26.663385 3.465846 39.108923 4.371692 15.36 8.467692 18.274462 19.692307 8.664615 59.785846-51.2 136.192-84.873846 221.617231-84.873846 26.860308 0 52.932923 3.150769 77.942154 9.176615 11.972923 2.875077 11.854769 3.229538 22.331077-3.150769 31.625846-19.180308 66.993231-34.894769 104.448-49.388308 9.176615-3.544615 13.430154-10.712615 8.034462-23.197538zM201.820554 217.127385C115.843938 224.610462 41.367631 291.721846 12.2624 380.258462c-41.235692 125.006769 25.088 258.363077 148.086154 297.787076 12.918154 4.135385 25.796923 8.349538 38.833231 8.822154 16.187077 0.669538 20.243692-2.205538 14.454153-15.753846-30.956308-71.837538-39.778462-153.875692-13.430153-233.944615a323.308308 323.308308 0 0 1 32.964923-70.183385c6.419692-10.279385 6.734769-10.121846 3.820307-21.897846-8.664615-35.603692-12.918154-73.649231-15.36-113.230769-0.551385-9.649231-6.144-15.950769-19.810461-14.729846z m-94.129231 512.472615c-19.298462 82.865231 22.449231 173.371077 98.855385 228.076308 107.913846 77.312 257.102769 56.32 333.154461-46.828308 7.916308-10.791385 15.911385-21.543385 20.48-33.673846 5.632-14.966154 4.096-19.652923-10.752-18.353231-78.848 6.734769-160.768-10.24-229.888-59.746461a327.798154 327.798154 0 0 1-57.619692-52.578462c-7.916308-9.216-7.68-9.452308-19.889231-10.358154-37.060923-2.796308-75.067077-10.633846-114.018461-20.558769-9.452308-2.481231-17.250462 0.827077-20.361847 14.020923z m465.447385 246.547692c74.043077 43.716923 174.198154 32.610462 250.604307-22.094769 107.992615-77.312 133.828923-223.625846 57.777231-326.774154-7.995077-10.791385-15.872-21.661538-26.112-29.656615-12.721231-9.846154-17.762462-9.885538-21.070769 4.411077-17.880615 76.012308-59.628308 147.534769-128.748308 197.041231a329.846154 329.846154 0 0 1-68.529231 37.730461c-11.303385 4.568615-11.421538 4.253538-16.147692 15.478154-14.178462 33.870769-33.437538 67.072-55.138461 100.509538-5.159385 8.073846-4.450462 16.384 7.364923 23.355077z m381.715692-360.054154c65.063385-55.886769 85.307077-153.245538 56.123077-241.782153-41.235692-125.006769-174.473846-194.520615-297.511385-155.096616-12.878769 4.096-25.757538 8.152615-36.627692 15.36-13.508923 8.822154-15.044923 13.508923-2.284308 21.070769 67.899077 40.211692 123.982769 101.454769 150.370462 181.523693 8.152615 24.615385 13.272615 50.097231 15.281231 75.894154 0.905846 12.091077 0.512 12.091077 9.846153 19.928615 28.317538 23.748923 54.429538 52.105846 80.029539 82.707692 6.222769 7.483077 14.454154 9.294769 24.812308 0.393846z m-447.488 186.683077c-39.384615 0-76.878769-8.585846-110.473846-23.906461-3.544615-1.575385-6.695385-3.662769-6.695385-8.507077v-196.017231c0-16.344615 12.051692-19.495385 22.803693-8.900923l89.166769 87.827692c6.104615 6.025846 5.001846 5.356308 11.145846-0.512l222.404923-213.700923c5.710769-5.435077 17.329231-5.671385 20.361846 2.363077 12.209231 31.901538 21.188923 65.929846 21.188923 102.203077 0 143.438769-124.337231 259.150769-269.902769 259.150769z m5.198769-525.390769c39.463385 0 76.839385 8.585846 110.434462 23.906462 3.544615 1.575385 6.695385 3.702154 6.695384 8.546461v195.977846c0 16.344615-11.972923 19.534769-22.764307 8.900923-29.735385-29.262769-59.470769-58.525538-89.127385-87.827692-5.12-4.923077-5.553231-4.923077-10.633846 0-73.649231 72.073846-148.598154 142.808615-222.916923 214.252308-5.750154 5.356308-17.329231 5.632-20.401231-2.323692-12.209231-31.940923-21.188923-65.969231-21.188923-102.242462 0-143.438769 124.297846-259.150769 269.902769-259.150769z" fill="#D70812" p-id="27949"></path></svg>