<?xml version="1.0" standalone="no"?><!DOCTYPE svg PUBLIC "-//W3C//DTD SVG 1.1//EN" "http://www.w3.org/Graphics/SVG/1.1/DTD/svg11.dtd"><svg t="1767314584539" class="icon" viewBox="0 0 1325 1024" version="1.1" xmlns="http://www.w3.org/2000/svg" p-id="34432" xmlns:xlink="http://www.w3.org/1999/xlink" width="258.7890625" height="200"><path d="M310.211765 120.470588h537.6C798.117647 146.070588 691.2 210.823529 638.494118 301.176471c-140.047059-1.505882-182.211765 3.011765-182.211765 3.011764l-15.058824 390.02353c52.705882-31.623529 94.870588-76.8 121.976471-118.964706 31.623529-48.188235 33.129412-96.376471 54.211765-149.082353C692.705882 231.905882 862.870588 135.529412 974.305882 120.470588h39.152942c21.082353 0 39.152941 18.070588 39.152941 39.152941v703.247059c0 21.082353-18.070588 39.152941-39.152941 39.152941H468.329412c51.2-27.105882 153.6-90.352941 204.8-177.694117 140.047059 3.011765 183.717647-1.505882 183.717647-1.505883l15.058823-390.023529c-52.705882 31.623529-94.870588 76.8-121.97647 117.458824-31.623529 48.188235-33.129412 96.376471-54.211765 149.082352C624.941176 786.070588 466.823529 882.447059 353.882353 903.529412h-42.164706c-21.082353 0-39.152941-18.070588-39.152941-39.152941V158.117647C271.058824 138.541176 289.129412 120.470588 310.211765 120.470588z" fill="#005BAB" p-id="34433"></path></svg>