<?xml version="1.0" standalone="no"?><!DOCTYPE svg PUBLIC "-//W3C//DTD SVG 1.1//EN" "http://www.w3.org/Graphics/SVG/1.1/DTD/svg11.dtd"><svg t="1767314436308" class="icon" viewBox="0 0 1024 1024" version="1.1" xmlns="http://www.w3.org/2000/svg" p-id="23828" xmlns:xlink="http://www.w3.org/1999/xlink" width="200" height="200"><path d="M63.136914 234.378971h897.726172c32.826514 0 59.684571 26.243657 61.937371 59.567543l0.146286 4.593372V725.577143c0 33.938286-25.3952 61.527771-57.636572 63.868343l-4.447085 0.175543H63.136914c-32.826514 0-59.684571-26.155886-61.937371-59.450515L1.053257 725.577143V298.539886c0-33.938286 25.3952-61.6448 57.636572-63.985372l4.447085-0.175543h897.726172z m897.726172 21.357715H63.136914c-21.533257 0-39.233829 16.969143-41.252571 38.677943l-0.175543 4.125257v290.933028c0 22.147657 16.413257 40.521143 37.449143 42.5984l3.978971 0.2048h897.726172c21.533257 0 39.233829-16.969143 41.252571-38.677943l0.175543-4.125257v-290.933028c0-23.639771-18.549029-42.8032-41.428114-42.8032zM220.306286 365.333943c1.901714 0 3.335314 1.492114 3.335314 3.335314v17.905372h57.987657c10.6496 0 19.309714 8.952686 19.309714 19.953371v65.301943a19.6608 19.6608 0 0 1-19.309714 19.982628H223.6416v28.086858a3.4816 3.4816 0 0 1-3.335314 3.452342h-23.552a3.393829 3.393829 0 0 1-3.335315-3.423085v-28.116115H135.460571a19.6608 19.6608 0 0 1-19.309714-19.982628v-65.301943c0-11.000686 8.660114-19.953371 19.309714-19.953371h57.987658V368.64c0-1.8432 1.550629-3.335314 3.335314-3.335314z m479.6416 8.016457c1.872457 0 3.335314 1.521371 3.335314 3.335314v14.482286a3.4816 3.4816 0 0 1-3.335314 3.423086h-66.413715v74.488685h72.2944c1.755429 0 3.218286 1.609143 3.335315 3.335315v15.242971c0 1.960229-1.462857 3.452343-3.218286 3.452343h-72.323657v28.672a3.4816 3.4816 0 0 1-3.335314 3.452343h-22.089143a3.393829 3.393829 0 0 1-3.335315-3.423086v-28.672h-72.206628a3.393829 3.393829 0 0 1-3.335314-3.4816v-15.242971c0-1.755429 1.550629-3.335314 3.335314-3.335315h72.206628v-74.488685h-66.413714a3.393829 3.393829 0 0 1-3.335314-3.423086v-14.482286c0-1.813943 1.550629-3.335314 3.335314-3.335314z m80.427885 34.318629a3.510857 3.510857 0 0 1 3.423086 3.569371v12.639086h66.325943v-12.639086c0-1.960229 1.462857-3.569371 3.335314-3.569371h19.309715c1.784686 0 3.335314 1.609143 3.335314 3.569371v12.639086h28.320914c1.901714 0 3.335314 1.462857 3.569372 3.423085v14.804115c0 1.726171-1.462857 3.335314-3.335315 3.335314h-28.320914v9.186743c0 10.678857-4.768914 20.8896-17.437257 27.209143-4.885943 2.516114-10.883657 5.500343-17.232457 8.6016 11.351771 4.798171 21.357714 6.992457 31.890285 6.992457h26.887315c1.872457 0 3.423086 1.462857 3.423085 3.452343v14.570057a3.510857 3.510857 0 0 1-3.423085 3.540114h-26.448457c-10.6496 0-23.552-2.282057-34.435658-6.524343-4.447086-1.609143-12.873143-5.412571-22.528-10.005943-9.654857 4.476343-18.139429 8.279771-22.557257 10.005943a100.878629 100.878629 0 0 1-34.435657 6.524343h-26.448457c-1.755429 0-3.335314-1.609143-3.335314-3.540114v-14.687086c0-1.960229 1.462857-3.452343 3.335314-3.452343h26.887314c10.532571 0 20.538514-2.194286 31.890286-7.021714a675.371886 675.371886 0 0 1-17.232457-8.6016c-12.668343-6.290286-17.437257-16.501029-17.437257-27.209143v-9.157486h-28.437943a3.2768 3.2768 0 0 1-3.218286-3.335314v-14.804114c0-1.8432 1.462857-3.306057 3.218286-3.306057h28.437943v-12.639086c0-1.960229 1.462857-3.569371 3.335314-3.569371z m-290.933028-37.2736c10.678857 0 19.309714 8.952686 19.309714 19.953371v108.544a19.6608 19.6608 0 0 1-19.309714 19.982629h-142.716343a19.6608 19.6608 0 0 1-19.338971-19.953372v-108.544c0-11.029943 8.660114-19.982629 19.309714-19.982628z m-6.436572 19.602285h-129.8432v107.666286h129.8432v-107.666286z m-13.224228 12.288v18.139429h-38.970514v12.170971h33.411657v16.618057h-33.411657v17.671315h19.426742v-7.899429h19.456v26.038857h-103.306971v-18.139428h38.970514v-17.671315h-33.323885v-16.618057h33.353142v-12.170971h-38.912v-18.139429h103.306972z m380.1088 43.154286h-66.296686v6.436571c0 6.085486 1.111771 10.766629 8.543086 14.687086 5.997714 2.984229 15.798857 7.899429 24.663771 12.141714 8.894171-4.242286 18.666057-9.069714 24.663772-12.141714 7.431314-3.920457 8.543086-8.6016 8.543085-14.687086h-0.117028v-6.436571zM193.536 408.722286H143.5648v60.942628h49.9712V408.722286z m80.0768 0H223.6416v60.942628h49.9712V408.722286z m419.108571-2.311315c1.667657 0 2.779429 1.492114 1.901715 3.218286l-22.1184 44.6464a6.290286 6.290286 0 0 1-5.675886 3.101257h-22.206171c-1.667657 0-2.779429-1.375086-1.872458-3.101257l22.206172-44.6464c0.789943-1.8432 2.896457-3.218286 5.558857-3.218286z m-124.635428 0c2.6624 0 4.681143 1.492114 5.558857 3.218286l22.1184 44.6464c0.877714 1.726171-0.234057 3.101257-1.901714 3.101257h-22.3232c-2.6624 0-4.768914-1.492114-5.3248-3.101257l-22.235429-44.6464c-0.877714-1.8432 0.234057-3.218286 1.901714-3.218286z m259.803428-41.7792c1.901714 0 3.335314 1.609143 3.335315 3.452343v8.279772h58.426514a16.676571 16.676571 0 0 1 12.053943 5.12c3.189029 3.2768 4.973714 7.753143 4.973714 12.434285v11.351772a3.393829 3.393829 0 0 1-3.364571 3.452343h-15.418515c-1.784686 0-3.218286-1.609143-3.218285-3.452343v-9.859657h-135.519086v9.859657a3.393829 3.393829 0 0 1-3.335314 3.452343h-15.447772a3.335314 3.335314 0 0 1-3.335314-3.452343v-11.351772c0-9.771886 7.665371-17.554286 16.9984-17.554285h58.426514v-8.279772c0-1.960229 1.550629-3.452343 3.335315-3.452343z" fill="#EC6C00" p-id="23829"></path><path d="M400.149943 699.070171a5.266286 5.266286 0 0 1-5.12 5.266286 5.12 5.12 0 0 1-5.090743-5.266286c0-2.8672 2.340571-5.266286 5.090743-5.266285 2.896457 0 5.12 2.399086 5.12 5.266285z m235.490743 0a5.266286 5.266286 0 0 1-5.12 5.266286 5.002971 5.002971 0 0 1-3.627886-1.521371 5.354057 5.354057 0 0 1-1.462857-3.744915c0-2.8672 2.340571-5.266286 5.090743-5.266285a5.266286 5.266286 0 0 1 5.12 5.266285z m-364.251429 27.765029l-1.4336-1.8432c-12.668343-5.968457-21.328457-12.726857-25.863314-20.187429h23.317943c1.462857 0 2.428343-1.258057 2.428343-2.8672 0-1.492114-0.877714-2.750171-2.428343-2.750171h-25.102629v-8.6016h16.969143a4.885943 4.885943 0 0 0 3.569371-1.521371 5.237029 5.237029 0 0 0 1.462858-3.657143v-16.764343c0-2.8672-2.223543-5.266286-5.002972-5.266286H220.306286c-2.779429 0-4.973714 2.282057-4.973715 5.266286v16.764343c0 1.375086 0.497371 2.691657 1.462858 3.657143a4.885943 4.885943 0 0 0 3.510857 1.521371h16.208457v8.6016H213.577143c-1.462857 0-2.4576 1.258057-2.4576 2.750171 0 1.609143 0.877714 2.8672 2.4576 2.8672h21.650286c-3.8912 6.202514-11.8784 12.726857-23.873829 19.602286-1.345829 0.936229-1.579886 2.428343-0.672914 4.388572 1.111771 1.726171 2.340571 2.165029 3.8912 1.462857 10.4448-5.705143 17.759086-11.907657 21.972114-18.695315v22.966858c0.117029 1.726171 1.111771 2.8672 3.013486 2.8672 1.755429 0 2.779429-1.024 2.896457-2.8672v-22.966858c5.851429 7.460571 13.984914 14.1312 24.429714 19.8656l2.340572 0.117029 1.872457-1.8432 0.351085-2.8672z m-47.981714-42.013257a2.2528 2.2528 0 0 1-2.223543-2.282057v-10.678857c0-1.258057 1.024-2.282057 2.223543-2.282058H256.292571a2.340571 2.340571 0 0 1 2.340572 2.282058v10.678857a2.282057 2.282057 0 0 1-2.340572 2.282057H223.407543z m-10.971429-21.357714l-2.223543-1.579886c-2.223543-0.117029-3.569371 1.170286-4.096 3.8912-1.813943 10.795886-5.675886 19.631543-11.585828 26.624-1.199543 1.755429-1.111771 3.569371 0.234057 5.178514l2.223543 0.906972 2.340571-1.258058c1.199543-1.492114 2.8672-4.359314 2.8672-4.359314v40.96c0.117029 2.194286 1.111771 3.452343 3.130515 3.452343 1.989486 0 2.984229-1.258057 3.101257-3.452343v-52.077714c2.223543-5.5296 3.657143-10.4448 4.330057-14.921143a4.681143 4.681143 0 0 0-0.321829-3.335314z m131.715657 19.748571h-23.200914c-1.755429 0.117029-2.779429 1.170286-2.896457 3.101257 0.117029 2.077257 0.994743 3.101257 2.779429 3.218286h23.317942c1.550629-0.117029 2.4576-1.141029 2.574629-3.101257-0.117029-2.048-1.024-3.101257-2.574629-3.218286z m9.567086 45.231543h-41.106286c-1.755429 0.117029-2.779429 1.170286-2.896457 2.984228 0.117029 1.960229 1.024 2.984229 2.6624 3.101258h41.223315c1.550629-0.117029 2.4576-1.170286 2.545371-2.984229-0.087771-2.048-0.877714-2.984229-2.428343-3.101257z m-9.098971-33.294629a145.993143 145.993143 0 0 1-6.3488 27.092115c-0.672914 2.048-0.321829 3.803429 1.462857 4.388571 2.545371 0.877714 3.510857-1.404343 3.861943-2.428343 3.335314-8.952686 5.909943-18.256457 6.787657-27.882057 0.234057-2.311314-0.585143-3.920457-2.4576-4.154514-1.755429-0.585143-2.984229 0.702171-3.306057 2.984228z m-15.798857-2.633143c-1.755429 0.468114-2.428343 1.960229-1.989486 4.037486 1.667657 6.524343 3.101257 13.750857 4.008228 21.562514 0.321829 2.165029 1.462857 3.452343 3.335315 3.218286 1.755429-0.234057 2.545371-1.726171 2.340571-3.920457a124.810971 124.810971 0 0 0-4.125257-22.352457c-0.672914-2.077257-1.901714-2.984229-3.569371-2.545372z m28.672-11.234742l-1.989486-1.8432a48.274286 48.274286 0 0 1-20.450743-15.389258c-2.545371-3.423086-5.12-3.306057-7.665371 0.468115a71.621486 71.621486 0 0 1-17.671315 16.764343 3.510857 3.510857 0 0 0-1.199543 4.681142c1.199543 1.6384 2.8672 1.8432 4.885943 0.585143 8.660114-5.617371 12.551314-10.532571 15.096686-14.336 1.462857-1.726171 2.340571-2.633143 2.545371-2.633143 0.351086 0 1.462857 0.906971 3.218286 2.633143 3.569371 4.359314 9.654857 8.718629 18.344229 13.312l2.779428 0.117029 1.989486-1.8432 0.117029-2.516114z m-43.095772 14.453028c-1.667657 0.702171-2.018743 2.194286-1.111771 4.242286 3.657143 8.162743 6.202514 15.623314 7.665371 22.147657 0.555886 2.048 1.755429 3.218286 3.540114 2.750171 1.667657-0.321829 2.4576-1.813943 2.018743-4.096a95.817143 95.817143 0 0 0-8.016457-23.113142c-1.111771-1.930971-2.545371-2.720914-4.096-1.930972z m-5.880686 2.516114c-0.585143-1.609143-1.2288-3.101257-1.667657-4.096l-0.994743-2.194285-0.351085-1.960229 0.117028-1.726171 3.101257-15.038172v-0.789943l0.117029-0.702171c0.234057-2.399086 0.117029-4.008229-0.438857-4.827429-0.585143-1.024-2.106514-1.462857-4.213029-1.462857h-11.234743c-3.774171 0-5.12 2.048-5.12 5.032229v64.043886c0 1.726171 1.111771 2.8672 3.130515 2.8672 1.989486 0 3.101257-1.170286 3.101257-2.8672v-60.591543c0-1.755429 0.672914-2.428343 2.106514-2.428343h4.447086c1.111771 0 1.901714 0.585143 1.901714 1.960228l-2.779428 13.663086-0.234058 2.8672c0 1.375086 0.117029 2.8672 0.789943 4.359314l0.994743 2.194286c0.672914 1.579886 1.667657 3.774171 2.340572 6.056229a21.065143 21.065143 0 0 1 1.111771 6.202514c0 1.960229-0.468114 3.101257-1.024 3.6864-0.555886 0.585143-0.994743 0.906971-2.428343 1.024l-2.4576-0.468114a2.925714 2.925714 0 0 0-3.540114 2.194285c-0.438857 1.609143 0.438857 3.335314 1.989486 3.657143 1.345829 0.351086 2.6624 0.702171 4.008228 0.702172h0.117029a9.654857 9.654857 0 0 0 7.109485-2.984229c1.755429-2.048 2.340571-4.827429 2.340572-7.811657a28.554971 28.554971 0 0 0-2.340572-10.532571z m217.380572 9.303772l-2.340572 1.258057-2.223542-0.906971-0.877715-2.428343 1.082515-2.516115c4.885943-5.617371 8.952686-11.907657 12.112457-18.724571l1.901714-2.048 2.428343-0.117029 1.784686 2.048-0.2048 2.896458a34.786743 34.786743 0 0 1-2.691658 5.266285l-0.877714 1.492115v40.287085c-0.117029 2.311314-0.994743 3.569371-3.101257 3.569372-1.901714 0-3.013486-1.375086-3.130514-3.569372v-30.983314l-3.861943 4.476343z m7.197257-43.388343l1.901714-1.930971 2.428343 0.117028 1.667657 2.165029-0.321828 2.750171c-3.803429 7.109486-7.665371 13.077943-11.8784 18.0224l-2.223543 1.170286-2.340572-0.8192c-1.462857-1.492114-1.550629-3.101257-0.234057-4.593372 4.447086-5.500343 8.221257-11.029943 11.000686-16.881371z m13.663086 20.099657h44.558628c1.872457 0.117029 2.984229 1.024 2.984229 3.218286 0 2.165029-1.111771 3.101257-2.984229 3.218286h-8.894171v33.616457c0 6.319543-1.755429 9.976686-5.558857 11.234743-3.8912 1.492114-10.766629 0.8192-20.772572-2.048l-2.223543-1.609143-0.087771-2.8672 1.550629-2.077257c0.760686-0.468114 1.667657-0.351086 2.779428 0 7.109486 2.048 11.8784 2.8672 14.218972 2.282057 2.428343-0.438857 3.657143-2.282057 3.657142-5.851429v-32.797257h-29.110857c-1.989486-0.117029-3.101257-1.053257-3.101257-3.335314-0.234057-1.960229 0.994743-2.984229 2.984229-2.984229z m3.130514-18.607543h37.302857c2.106514 0 3.452343 1.258057 3.452343 3.101257 0 2.048-1.345829 3.218286-3.452343 3.218286h-37.302857c-2.018743-0.117029-3.218286-1.024-3.218286-3.218286 0-1.930971 1.199543-3.101257 3.218286-3.101257z m-43.563886 65.301943l-1.872457-2.048a52.4288 52.4288 0 0 1-13.1072-9.4208l1.316572-1.258057c3.335314-3.101257 6.144-5.968457 8.338285-8.6016 1.2288-1.492114 0.994743-2.984229-0.438857-4.388571l-2.223543-0.672915-1.989485 1.258057c-2.896457 3.452343-5.675886 6.436571-8.455315 8.835658a44.324571 44.324571 0 0 1-5.558857-12.726858h13.224229a4.885943 4.885943 0 0 0 3.540114-1.521371 5.237029 5.237029 0 0 0 1.462857-3.657143v-26.858057c0-2.8672-2.223543-5.266286-4.973714-5.266286h-26.916572c-2.779429 0-4.973714 2.282057-4.973714 5.266286v60.942629c0.087771 6.085486 2.633143 8.045714 7.636114 5.851428 3.013486-1.696914 6.670629-4.681143 10.912915-9.274514 1.4336-1.8432 1.316571-3.569371-0.117029-5.266286l-2.4576-0.8192-2.340571 1.462857a30.3104 30.3104 0 0 1-6.7584 6.5536l-0.789943 0.234057-0.2048-1.024v-26.741028h6.436571c3.335314 14.687086 11.761371 25.6 25.219657 32.3584l2.779429 0.585143 2.106514-1.492115 0.2048-2.311314zM469.460114 672.914286c0-1.258057 0.994743-2.282057 2.223543-2.282057h20.655543c1.2288 0 2.223543 1.024 2.223543 2.282057v7.460571h-25.219657V672.914286h0.117028z m0 23.200914v-9.654857h25.219657v7.343543a2.2528 2.2528 0 0 1-2.223542 2.311314h-22.996115z m-23.552-21.357714h13.341257c1.755429-0.117029 2.779429-1.024 2.779429-2.984229 0-1.930971-1.111771-2.984229-2.779429-3.101257h-11.556571c0.555886-2.399086 0.877714-3.657143 0.877714-4.008229 0.351086-1.960229-0.438857-3.218286-2.340571-3.8912-1.989486-0.234057-3.306057 0.438857-3.774172 2.399086-2.106514 9.654857-5.646629 17.905371-10.4448 24.7808-1.316571 2.048-1.111771 3.6864 0.468115 5.061486l2.545371 0.468114 2.545372-1.755428 1.667657-2.282058h3.335314v10.561829h-7.899429c-1.550629 0.117029-2.428343 1.024-2.428342 2.984229 0 1.8432 0.994743 2.984229 2.4576 3.101257h7.899428v24.663771c0 2.984229 0.643657 4.973714 1.960229 5.851429 1.345829 0.936229 3.130514 0.702171 5.237028-0.789943 3.452343-2.282057 7.109486-5.617371 10.883657-9.976686 1.2288-1.609143 1.111771-3.101257-0.321828-4.593371l-2.340572-0.702172-2.106514 1.258057a55.588571 55.588571 0 0 1-5.558857 5.851429l-1.550629 0.468114-0.438857-1.258057v-20.772571h10.327772c1.4336-0.117029 2.428343-1.170286 2.428343-3.218286 0-1.8432-0.877714-2.750171-2.428343-2.8672h-10.327772v-10.532571h8.543086c1.755429-0.146286 2.779429-1.170286 2.779429-2.896458 0-1.930971-1.111771-2.984229-2.779429-3.101257h-15.008914l0.672914-1.258057c1.755429-3.218286 2.779429-5.617371 3.335314-7.460571z m237.275429-10.532572v14.453029h6.875428c1.345829 0 2.223543 1.024 2.223543 2.8672 0 1.813943-0.877714 2.8672-2.223543 2.8672h-6.875428v16.1792c1.316571-0.702171 2.8672-1.726171 4.768914-3.101257l0.438857-0.351086c1.667657-1.024 2.545371-1.024 3.803429 0.702171l0.526628 2.750172-1.667657 1.930971c-3.657143 2.311314-6.319543 4.037486-7.9872 4.827429v21.942857c0.117029 6.173257-3.6864 8.016457-11.234743 5.500343-2.106514-0.8192-2.8672-2.311314-2.633142-4.242286l1.4336-2.077257h2.633142c3.130514 1.375086 4.359314 1.170286 4.359315-0.351086v-17.788343l-0.351086 0.234058c-2.984229 1.726171-4.973714 2.750171-5.997714 3.101257-1.4336 0.468114-2.545371-0.234057-3.335315-1.8432-0.555886-1.726171-0.2048-2.984229 1.111772-3.657143l4.242286-2.194286c1.989486-1.024 3.335314-1.8432 4.213028-2.165028v-19.309715h-7.226514c-1.462857 0-2.223543-1.024-2.223543-2.837943 0-1.8432 0.877714-2.8672 2.223543-2.8672h7.226514v-14.482285c0-1.462857 0.994743-2.399086 2.779429-2.399086 1.872457-0.117029 2.896457 0.789943 2.896457 2.282057z m44.529371 29.842286c2.545371 0.087771 4.330057 0.877714 5.207772 2.633143 0.877714 1.696914 0.672914 3.8912-0.555886 6.641371a51.697371 51.697371 0 0 1-13.663086 18.812343c6.436571 3.920457 13.224229 6.202514 20.48 7.226514 2.077257 0.468114 3.072 1.755429 3.072 3.920458-0.321829 1.930971-1.550629 2.750171-3.657143 2.516114-10.6496-1.960229-19.221943-5.061486-25.453714-9.537829-6.319543 4.037486-13.867886 7.021714-22.410971 9.186743-2.223543 0.468114-3.803429-0.234057-4.564115-1.8432-0.555886-2.048 0.234057-3.423086 2.223543-4.096 7.899429-2.077257 14.218971-4.622629 19.221943-7.606857a82.856229 82.856229 0 0 1-11.8784-14.453029c-1.2288-2.048-1.024-3.803429 0.555886-5.149257l2.633143-0.351085 2.2528 1.8432c3.657143 5.968457 7.548343 10.532571 12.200228 14.453028 6.144-4.7104 10.327771-9.859657 12.785372-15.623314 0.555886-1.462857 0.2048-2.282057-0.789943-2.399086h-28.672c-1.316571 0-2.428343-1.024-2.428343-3.101257 0-1.960229 0.994743-3.101257 2.4576-3.101257h30.983314z m-22.996114-29.988571h17.993143c3.657143 0 5.441829 1.755429 5.3248 5.266285v12.756115c0 1.170286 0.117029 1.960229 0.468114 2.194285l1.989486 0.438857h6.875428c2.106514 0 3.130514 1.053257 3.130515 2.896458 0 1.930971-1.2288 2.984229-3.130515 3.072h-8.426057c-2.6624 0-4.447086-0.438857-5.3248-1.579886-0.877714-0.936229-1.345829-2.984229-1.345828-6.319543v-11.264c0-1.141029-0.672914-1.696914-1.667657-1.696914h-14.218972c-1.462857 0-2.223543 0.585143-1.989486 1.813943v4.827428c0 7.226514-3.218286 12.639086-10.24 17.115429-1.989486 1.024-3.657143 1.024-4.768914-0.585143-1.2288-1.726171-0.555886-3.452343 1.2288-4.593372 5.763657-3.335314 8.338286-7.694629 8.192-13.312v-5.617371c0-3.803429 1.813943-5.412571 5.909943-5.412571z m88.649143 40.872228c-2.018743 0-3.218286 1.170286-3.803429 3.452343-0.877714 14.336-10.6496 21.650286-29.403428 22.147657-2.135771 0.321829-3.130514 1.462857-3.130515 3.306057 0.468114 1.8432 1.667657 2.633143 3.803429 2.545372 21.533257-0.468114 33.206857-9.654857 34.874514-27.4432 0.438857-2.282057-0.351086-3.540114-2.340571-4.008229z m-33.440914-35.0208l0.672914 0.234057c4.447086 1.258057 8.660114 2.750171 12.551314 4.593372 1.872457 0.702171 3.218286 0.234057 4.008229-1.609143l-0.117029-2.282057-1.784686-1.726172a212.757943 212.757943 0 0 0-13.897142-4.944457c-1.872457-0.438857-3.218286 0.351086-3.774172 2.194286-0.555886 1.726171 0.438857 2.8672 2.340572 3.540114z m0.994742 26.858057c6.787657-2.984229 12.580571-6.290286 17.232458-9.859657l1.550628-2.282057-0.672914-2.545371-2.223543-1.141029-2.545371 1.170286a91.253029 91.253029 0 0 1-16.003658 9.274514c-1.872457 0.906971-2.6624 2.282057-1.755428 4.008229 0.760686 1.8432 2.428343 2.048 4.417828 1.375085z m66.647772-4.593371c-11.117714-2.750171-19.017143-8.016457-23.639772-15.711086a18.314971 18.314971 0 0 0 0.877715-3.8912h13.984914c1.901714 0 1.345829 2.048-2.633143 6.875429-1.258057 1.726171-1.141029 3.218286 0.2048 4.593371 1.462857 1.024 2.8672 0.789943 4.330057-0.8192a31.597714 31.597714 0 0 0 5.997715-10.766628c0.994743-3.920457-0.234057-5.617371-4.885943-5.617372H791.113143l1.2288-2.633143 0.087771-2.633143-1.550628-1.872457c-1.755429-0.672914-3.101257 0-3.8912 1.8432-1.755429 4.388571-4.681143 8.484571-8.543086 12.522057-1.462857 1.609143-1.667657 3.101257-0.555886 4.476343 1.345829 1.258057 2.896457 1.141029 4.564115-0.117028 1.462857-1.258057 3.218286-3.218286 5.3248-6.085486h10.327771c-1.550629 8.952686-8.455314 14.570057-20.772571 18.139429-1.989486 0.672914-2.779429 1.930971-2.340572 3.657142 0.672914 1.726171 2.106514 2.428343 4.242286 2.048 10.766629-2.633143 17.993143-6.875429 21.767314-14.336 5.207771 8.045714 13.546057 13.458286 25.102629 15.857372l2.545371-0.234057 1.462857-1.8432c0.292571-1.609143-0.585143-2.8672-2.574628-3.452343z m-1.550629 39.497143a118.696229 118.696229 0 0 0-26.097371-11.381029c-1.901714-0.438857-3.218286 0.117029-4.008229 1.755429-0.438857 1.813943 0.234057 3.072 1.989486 3.774171 9.0112 2.633143 17.554286 6.319543 25.658514 11.351772l2.4576 0.585142 1.755429-1.609142v-2.428343l-1.755429-2.048z m-61.205943-8.279772c0 0.877714 0.321829 1.696914 0.906972 2.282057 0.585143 0.585143 1.375086 0.936229 2.194286 0.936229a3.218286 3.218286 0 0 0 3.130514-3.218286v-17.086171c0-1.375086 1.111771-2.399086 2.340571-2.399086h39.409372a2.340571 2.340571 0 0 1 2.340571 2.399086v15.272228c0 0.848457 0.321829 1.667657 0.906972 2.2528a3.042743 3.042743 0 0 0 4.388571 0 3.2768 3.2768 0 0 0 0.936229-2.2528v-18.373485a5.3248 5.3248 0 0 0-5.354058-5.383315h-45.8752a5.12 5.12 0 0 0-3.6864 1.579886 5.471086 5.471086 0 0 0-1.521371 3.803429v20.187428h-0.117029z" fill="#FFFFFF" p-id="23830"></path></svg>