<?xml version="1.0" standalone="no"?><!DOCTYPE svg PUBLIC "-//W3C//DTD SVG 1.1//EN" "http://www.w3.org/Graphics/SVG/1.1/DTD/svg11.dtd"><svg t="1767314415500" class="icon" viewBox="0 0 1325 1024" version="1.1" xmlns="http://www.w3.org/2000/svg" p-id="22693" xmlns:xlink="http://www.w3.org/1999/xlink" width="258.7890625" height="200"><path d="M652.047059 418.635294c-18.070588-33.129412-33.129412-69.270588-48.188235-102.4-25.6-64.752941-51.2-129.505882-72.282353-195.764706-73.788235 210.823529-191.247059 408.094118-334.305883 575.247059 106.917647-25.6 213.835294-40.658824 319.247059-46.682353 51.2-73.788235 94.870588-149.082353 135.529412-230.4" fill="#BF0017" p-id="22694"></path><path d="M652.047059 644.517647c-43.670588 0-88.847059 0-132.517647 3.011765-58.729412 88.847059-128 171.670588-201.788236 252.988235 109.929412-22.588235 219.858824-28.611765 334.305883-28.611765s227.388235 10.541176 334.305882 28.611765c-73.788235-79.811765-143.058824-164.141176-201.788235-251.482353-43.670588-4.517647-88.847059-4.517647-132.517647-4.517647" fill="#730000" p-id="22695"></path><path d="M197.270588 695.717647l117.458824 203.294118c73.788235-79.811765 143.058824-164.141176 201.788235-251.482353-106.917647 9.035294-213.835294 22.588235-319.247059 48.188235" fill="#E60020" p-id="22696"></path><path d="M516.517647 649.035294c51.2-72.282353 94.870588-149.082353 132.517647-228.894118 40.658824 79.811765 84.329412 156.611765 132.517647 228.894118-43.670588-3.011765-88.847059-3.011765-132.517647-3.011765-40.658824-1.505882-84.329412-1.505882-132.517647 3.011765" fill="#FFFFFF" p-id="22697"></path><path d="M769.505882 120.470588c-22.588235 66.258824-43.670588 131.011765-73.788235 197.270588-15.058824 36.141176-30.117647 69.270588-48.188235 102.4 40.658824 79.811765 84.329412 156.611765 132.517647 228.894118 109.929412 7.529412 216.847059 22.588235 319.247059 46.682353C960.752941 528.564706 846.305882 331.294118 769.505882 120.470588" fill="#E60020" p-id="22698"></path><path d="M652.047059 418.635294c18.070588-33.129412 33.129412-69.270588 48.188235-102.4 25.6-66.258824 51.2-131.011765 73.788235-197.270588H534.588235c22.588235 66.258824 43.670588 131.011765 73.788236 197.270588 10.541176 33.129412 25.6 70.776471 43.670588 102.4" fill="#730000" p-id="22699"></path><path d="M986.352941 900.517647l117.458824-203.294118c-102.4-25.6-209.317647-40.658824-319.247059-46.682353 61.741176 85.835294 128 168.658824 201.788235 249.976471" fill="#BF0017" p-id="22700"></path></svg>