<?xml version="1.0" standalone="no"?><!DOCTYPE svg PUBLIC "-//W3C//DTD SVG 1.1//EN" "http://www.w3.org/Graphics/SVG/1.1/DTD/svg11.dtd"><svg t="1767314573212" class="icon" viewBox="0 0 1024 1024" version="1.1" xmlns="http://www.w3.org/2000/svg" p-id="33398" xmlns:xlink="http://www.w3.org/1999/xlink" width="200" height="200"><path d="M670.798769 524.721231c-44.228923-7.089231-81.250462 0-123.825231 6.695384 18.904615-72.507077 54.193231-132.489846 106.338462-187.82523-163.643077-57.659077-313.344-12.681846-463.832615 49.230769 101.809231-150.724923 449.772308-182.862769 606.050461-56.044308-66.914462 35.170462-128.787692 75.106462-174.040615 144.344616 69.277538-3.938462 133.513846-4.135385 201.649231 22.212923-166.439385 77.193846-267.185231 211.180308-346.742154 365.686153 30.601846-132.332308 82.274462-252.612923 194.402461-344.300307z m304.915693 473.127384H1024l-45.410462-76.406153 40.448-47.458462H965.710769l-36.273231 34.934154c0-25.718154 0.315077-69.710769 0.315077-69.710769h-45.292307s0.275692 119.256615 0.551384 161.792h44.819693v-28.514462l17.959384-23.079385 27.884308 48.443077z m-387.741539-18.628923c12.209231-2.796308 22.724923-9.649231 23.158154-26.151384 0.275692-9.255385-5.632-10.24-12.563692-7.955693-12.288 3.977846-28.987077 3.308308-31.389539 20.164923-1.575385 11.264 8.664615 14.099692 20.873846 13.942154h-0.078769z m69.159385-26.230154c0 7.207385-0.157538 14.454154 0 21.661539 0.590769 26.978462-10.161231 36.627692-33.634462 24.418461-12.524308-6.419692-19.377231-5.238154-30.247384-0.275692-9.097846 3.741538-18.865231 5.632-28.711385 5.474462-21.346462 0.315077-40.448-6.419692-44.110769-30.483693-3.820308-24.576 12.012308-35.643077 33.910154-40.172307 12.327385-2.599385 24.576-5.159385 36.627692-8.546462 8.034462-2.244923 21.188923-2.756923 18.038154-14.887384-3.702154-14.099692-17.998769-11.342769-27.175385-7.483077-11.264 4.765538-20.48 14.375385-34.343385 10.200615-7.168-2.244923-18.707692 2.323692-20.676923-7.601231-1.772308-9.097846 5.789538-17.565538 13.942154-21.504a116.105846 116.105846 0 0 1 93.853539-2.875077c27.372308 10.594462 21.897846 38.124308 22.44923 61.243077 0.118154 3.623385 0 7.246769 0 10.870154l0.07877-0.039385z m179.239384-27.254153c0.393846 19.022769-0.866462 38.084923 0.275693 57.028923 1.024 17.329231-8.507077 18.825846-21.740308 18.628923-13.312-0.236308-25.6 0.512-24.418462-19.022769 0.827077-15.36 0.078769-30.798769-0.118153-46.198154-0.157538-12.406154-1.811692-25.442462-17.092924-26.072616-16.147692-0.630154-20.637538 12.406154-21.464615 25.915077a365.883077 365.883077 0 0 0-0.590769 46.158769c1.299692 19.613538-10.791385 18.786462-24.182154 19.140924-13.508923 0.393846-22.764308-1.693538-21.582769-18.747077 1.024-14.414769 0.196923-28.908308 0.157538-43.401847v-0.039384c0-12.642462-0.630154-25.363692 0.196923-38.006154 0.590769-8.270769-4.608-20.952615 6.774154-23.433846 11.224615-2.441846 27.017846-8.192 34.461539 4.568615 6.813538 11.618462 10.003692 4.489846 15.753846 1.378462 43.598769-23.236923 72.704-6.656 73.570461 42.141538zM895.212308 238.316308c109.607385 164.706462 111.537231 339.180308 21.543384 515.268923-9.452308 18.589538-21.346462 25.993846-42.259692 24.142769-23.867077-2.048-48.049231-0.433231-78.139077-0.433231 48.718769-62.148923 78.375385-125.912615 90.820923-198.183384 36.706462-213.897846-108.977231-424.132923-322.953846-464.423385C347.805538 74.043077 134.931692 219.451077 95.428923 435.081846c-34.658462 189.046154 58.998154 371.081846 231.069539 448.905846 30.601846 13.784615 31.074462 13.902769 36.903384-18.668307 19.377231-107.913846 20.401231-216.379077 8.192-324.923077-7.364923-65.693538-27.175385-79.556923-110.08-84.676923 79.438769-42.377846 177.703385-18.116923 186.013539 85.740307 11.185231 140.130462-6.577231 276.598154-50.688 409.481846-14.532923 43.716923-16.817231 43.323077-59.746462 28.829539C123.667692 907.815385-18.274462 695.138462 1.969231 477.144615 24.064 238.001231 194.048 52.263385 425.078154 24.221538c197.238154-23.945846 359.148308 47.379692 470.055384 214.09477z" fill="#B41317" p-id="33399"></path></svg>