<?xml version="1.0" standalone="no"?><!DOCTYPE svg PUBLIC "-//W3C//DTD SVG 1.1//EN" "http://www.w3.org/Graphics/SVG/1.1/DTD/svg11.dtd"><svg t="1767314548580" class="icon" viewBox="0 0 1024 1024" version="1.1" xmlns="http://www.w3.org/2000/svg" p-id="31235" xmlns:xlink="http://www.w3.org/1999/xlink" width="200" height="200"><path d="M590.848 557.03552l383.03232 0.16384 44.99968-44.9792-44.99968-45.0048-472.99072-0.25088 89.9584 90.07104zM730.81856 223.96416l-89.99424-90.14784-90.13248 90.05056 180.12672 0.09728zM841.70752 689.16224l-227.37408-0.06144-87.3984 87.41888 2.63168 2.56512 222.09024 0.0512 90.05056-89.97376zM529.67424 244.93056l-89.984 90.0096 402.16576 0.128-89.99424-90.07104-222.18752-0.06656zM611.8912 578.1504l56.67328 56.69376-33.24416 33.24928h227.35872l90.17344-89.86112-340.96128-0.08192zM550.5792 800.04096l89.95328 90.14272 90.1632-90.04544-180.11648-0.09728zM418.59584 355.97824l-14.40768 14.31552 75.70432 75.66336 472.95488 0.1024-89.99936-89.97888-444.25216-0.1024z" fill="#A98349" p-id="31236"></path><path d="M355.46112 389.1968l141.71136-141.71648-113.70496-113.62816L5.12 511.77984l378.22464 378.38336 236.45184-236.288-264.33536-264.6784z" fill="#00428E" p-id="31237"></path></svg>