<?xml version="1.0" standalone="no"?><!DOCTYPE svg PUBLIC "-//W3C//DTD SVG 1.1//EN" "http://www.w3.org/Graphics/SVG/1.1/DTD/svg11.dtd"><svg t="1767314516336" class="icon" viewBox="0 0 1024 1024" version="1.1" xmlns="http://www.w3.org/2000/svg" p-id="29078" xmlns:xlink="http://www.w3.org/1999/xlink" width="200" height="200"><path d="M685.883077 341.070769c-54.153846 0-105.314462 8.310154-151.118769 23.276308a149.110154 149.110154 0 0 1 126.030769 147.298461c0 135.483077-158.916923 245.208615-354.894769 245.208616-61.164308 0-118.744615-10.633846-168.999385-29.538462a1094.656 1094.656 0 0 0 374.862769 296.054154A1094.892308 1094.892308 0 0 0 1023.606154 511.606154c-2.796308-5.907692-5.750154-11.776-8.664616-17.644308-52.972308-89.678769-180.302769-152.891077-329.058461-152.891077z" fill="#D5AB44" p-id="29079"></path><path d="M337.132308 679.857231c52.184615 0 101.809231-7.798154 146.35323-21.740308a149.149538 149.149538 0 0 1-120.910769-140.366769c-0.118154-1.929846-0.118154-3.938462-0.118154-6.144 0-135.483077 158.877538-245.366154 355.012923-245.366154 61.164308 0 118.705231 10.752 168.999385 29.538462A1093.513846 1093.513846 0 0 0 511.763692 0 1094.104615 1094.104615 0 0 0 0 511.488c46.710154 97.752615 179.987692 168.369231 337.132308 168.369231z" fill="#095CAA" p-id="29080"></path></svg>