<?xml version="1.0" standalone="no"?><!DOCTYPE svg PUBLIC "-//W3C//DTD SVG 1.1//EN" "http://www.w3.org/Graphics/SVG/1.1/DTD/svg11.dtd"><svg t="1767314343250" class="icon" viewBox="0 0 1024 1024" version="1.1" xmlns="http://www.w3.org/2000/svg" p-id="17509" xmlns:xlink="http://www.w3.org/1999/xlink" width="200" height="200"><path d="M223.232 411.648c53.641846-48.994462 125.164308-70.813538 195.623385-59.707077-15.478154-33.792-75.618462-141.115077-210.707693-141.115077C83.692308 210.904615 0 325.710769 0 432.836923v396.760615c0 25.127385 18.156308 40.369231 18.156308 40.369231l110.749538 88.772923s21.937231 19.377231 21.937231-10.24v-360.920615c0-0.748308-0.315077-3.899077-0.315077-9.216 0-26.899692 6.183385-106.692923 72.704-166.518154m800.452923-217.363692c0-25.009231-18.195692-40.526769-18.195692-40.526769l-110.198154-88.615385s-22.134154-19.377231-22.134154 10.24c0 100.588308-0.236308 354.894769-0.236308 354.894769 0.236308 0.669538 0.393846 3.899077 0.393847 9.176616 0 26.899692-6.025846 106.653538-72.78277 166.439384-53.563077 48.994462-125.006769 70.852923-195.387077 59.785846 15.675077 33.792 75.500308 141.115077 210.707693 141.115077 124.573538 0 208.147692-114.766769 208.147692-221.892923 0 0-0.236308-205.705846-0.236308-390.734769m-353.28 209.644308l3.347693-3.229539c66.284308-56.359385 145.762462-51.278769 172.46523-47.616-10.830769-32.334769-58.564923-140.406154-200.507077-140.406154-80.344615 0-132.726154 44.465231-162.382769 81.959385-35.170462 44.268308-43.874462 96.295385-45.883077 123.549538-11.500308 128.866462-77.430154 190.582154-84.834461 197.277539-73.412923 63.527385-148.676923 55.138462-175.616 49.270154 12.8 34.500923 64.708923 144.856615 205.587692 141.115077 56.162462-1.732923 105.629538-24.497231 147.180308-68.017231 46.316308-48.443077 56.162462-123.707077 58.092307-145.801846 9.964308-110.276923 60.849231-168.172308 82.550154-188.100923" fill="#14377E" p-id="17510"></path></svg>