<?xml version="1.0" standalone="no"?><!DOCTYPE svg PUBLIC "-//W3C//DTD SVG 1.1//EN" "http://www.w3.org/Graphics/SVG/1.1/DTD/svg11.dtd"><svg t="1767314238539" class="icon" viewBox="0 0 1024 1024" version="1.1" xmlns="http://www.w3.org/2000/svg" p-id="11492" xmlns:xlink="http://www.w3.org/1999/xlink" width="200" height="200"><path d="M93.988571 572.416l-5.028571 28.086857h148.425143l6.582857-28.086857H93.988571z m377.526858 28.086857l4.973714-28.086857h-168.137143l-6.656 28.086857h169.819429z m94.043428-141.787428l-23.131428 113.700571-6.582858 28.086857-23.076571 113.883429H278.619429l-4.955429 26.331428h273.755429l36.297142-168.301714 23.058286-113.700571h328.210286l-24.704 113.700571H648.100571l-59.428571 281.965714h-339.748571l-4.937143 26.514286h380.909714l36.278857-166.528 23.076572-113.92h220.964571l-23.04 113.92h-156.726857l-34.541714 166.528-24.722286 113.737143H154.971429l59.337142-280.265143H0l24.685714-113.92 4.918857-28.068571 24.740572-113.700572h212.699428l59.428572-280.356571H560.64L590.262857 36.571429H1024l-24.740571 113.828571h-369.371429l-4.992 27.977143-23.076571 113.846857H367.689143l-6.656 26.331429h275.419428l4.937143-26.331429 24.722286-113.865143h328.118857l-24.685714 113.865143H707.364571l-29.732571 140.123429H338.011429l-6.656 26.331428H565.577143v0.036572z" fill="#007E3E" p-id="11493"></path></svg>