<?xml version="1.0" standalone="no"?><!DOCTYPE svg PUBLIC "-//W3C//DTD SVG 1.1//EN" "http://www.w3.org/Graphics/SVG/1.1/DTD/svg11.dtd"><svg t="1767314465107" class="icon" viewBox="0 0 1024 1024" version="1.1" xmlns="http://www.w3.org/2000/svg" p-id="25850" xmlns:xlink="http://www.w3.org/1999/xlink" width="200" height="200"><path d="M524.4 448.7c115.1 0 216.1 9.3 303.2 26.4 52.9 10.9 94.8 21.8 129 35.8L508.9 64.6 64.2 509.3c38.9-14 88.6-26.4 147.7-35.8 94.8-17 199-24.8 312.5-24.8z" fill="#FFCA02" p-id="25851"></path><path d="M508.9 960.2L953.6 514c-62.2-4.7-147.7-4.7-255 3.1-113.5 7.8-191.2 18.7-236.3 32.6-40.4 12.4-59.1 29.5-56 49.7 0 6.2 3.1 14 9.3 20.2l10.9 9.3c15.5 10.9 24.9 15.6 28 18.7 14 12.4 18.7 28 15.6 46.6-6.2 24.9-56 51.3-147.7 77.8l186.5 188.2z" fill="#314693" p-id="25852"></path></svg>